HIERARCHY
ROOT Hips
{
	OFFSET 0.00000 0.00000 0.00000
	CHANNELS 6 Xposition Yposition Zposition Zrotation Yrotation Xrotation 
	JOINT RightUpLegDummy
	{
		OFFSET 0 0 0
		CHANNELS 3 Zrotation Yrotation Xrotation
		JOINT RightUpLeg
		{
			OFFSET -3.52197 -3.41223 0.04002
			CHANNELS 3 Zrotation Yrotation Xrotation
			JOINT RightLeg
			{
				OFFSET 0.00006 -17.42390 1.60435
				CHANNELS 3 Zrotation Yrotation Xrotation
				JOINT RightFoot
				{
					OFFSET 0.06153 -16.50078 -1.63901
					CHANNELS 3 Zrotation Yrotation Xrotation
					JOINT RightToes
					{
						OFFSET 0.00298 -1.73825 3.34613
						CHANNELS 3 Zrotation Yrotation Xrotation
						End Site
						{
							OFFSET 0.00480 -0.05416 3.85043
						}
					}
				}
			}
		}
	}
	JOINT SpineDummy
	{
		OFFSET 0 0 0
		CHANNELS 3 Zrotation Yrotation Xrotation
		JOINT Spine
		{
			OFFSET 0.00000 4.68130 0.00000
			CHANNELS 3 Zrotation Yrotation Xrotation
			JOINT Spine1
			{
				OFFSET -0.00000 10.10138 0.05002
				CHANNELS 3 Zrotation Yrotation Xrotation
				JOINT HEadDummy
				{
					OFFSET 0 0 0
					CHANNELS 3 Zrotation Yrotation Xrotation
					JOINT Head
					{
						OFFSET -0.00000 3.43865 0.00438
						CHANNELS 3 Zrotation Yrotation Xrotation
						End Site
						{
							OFFSET -0.11417 5.02924 0.98962
						}
					}
				}
				JOINT LeftShoulder1Dummy
				{
					OFFSET 0 0 0
					CHANNELS 3 Zrotation Yrotation Xrotation
					JOINT LeftShoulder1
					{
						OFFSET 3.53937 -0.14262 -0.08662
						CHANNELS 3 Zrotation Yrotation Xrotation
						JOINT LeftArm
						{
							OFFSET 4.04833 -0.00133 0.12681
							CHANNELS 3 Zrotation Yrotation Xrotation
							JOINT LeftForeArm
							{
								OFFSET 10.33880 -0.01036 -0.55515
								CHANNELS 3 Zrotation Yrotation Xrotation
								JOINT LeftHand
								{
									OFFSET 8.69677 0.07543 0.40060
									CHANNELS 3 Zrotation Yrotation Xrotation
									End Site
									{
										OFFSET 5.28377 -0.21905 0.59205
									}
								}
							}
						}
					}
				}
				JOINT RightShoulderDummy
				{
					OFFSET 0 0 0
					CHANNELS 3 Zrotation Yrotation Xrotation
					JOINT RightShoulder
					{
						OFFSET -3.53937 -0.14262 -0.08660
						CHANNELS 3 Zrotation Yrotation Xrotation
						JOINT RightArm
						{
							OFFSET -4.04833 -0.00133 0.12683
							CHANNELS 3 Zrotation Yrotation Xrotation
							JOINT RightForeArm
							{
								OFFSET -10.37987 -0.01039 -0.55511
								CHANNELS 3 Zrotation Yrotation Xrotation
								JOINT RightHand
								{
									OFFSET -8.67398 0.07538 0.40058
									CHANNELS 3 Zrotation Yrotation Xrotation
									End Site
									{
										OFFSET -5.24810 -0.21916 0.59204
									}
								}
							}
						}
					}
				}
			}
		}
	}
	JOINT LeftUpLegDummy
	{
		OFFSET 0 0 0
		CHANNELS 3 Zrotation Yrotation Xrotation
		JOINT LeftUpLeg
		{
			OFFSET 3.52197 -3.41223 0.04002
			CHANNELS 3 Zrotation Yrotation Xrotation
			JOINT LeftLeg
			{
				OFFSET -0.00012 -17.42399 1.60337
				CHANNELS 3 Zrotation Yrotation Xrotation
				JOINT LeftFoot
				{
					OFFSET -0.09972 -16.50070 -1.63802
					CHANNELS 3 Zrotation Yrotation Xrotation
					JOINT LeftToes
					{
						OFFSET -0.01575 -1.73823 3.34611
						CHANNELS 3 Zrotation Yrotation Xrotation
						End Site
						{
							OFFSET 0.03150 -0.01868 3.85031
						}
					}
				}
			}
		}
	}
}
MOTION
Frames: 15
Frame Time: 0.033333
19.8749 38.7863 83.6118 178.8910 -26.0809 173.9280 0.0000 0.0000 0.0000 -13.2908 0.0102 -9.3074 -6.7010 -7.0850 36.9464 5.0268 -0.6919 4.6136 0.0000 -0.0000 -0.0000 0.0000 0.0000 0.0000 -0.8904 -3.2198 10.9667 6.4247 -4.4536 -2.7691 -0.0000 0.0000 -0.0000 -3.9690 6.8106 2.8998 -0.0000 0.0000 -0.0000 -32.7978 -2.5815 2.3623 -44.2790 -17.9598 -14.8389 -11.7970 5.2310 43.7275 13.3535 -4.7667 -1.1314 -0.0000 0.0000 -0.0000 34.0102 5.0167 3.4099 36.3940 -2.6718 -20.3286 9.8294 4.4397 16.3701 -9.4559 2.4592 -0.6186 0.0000 0.0000 0.0000 0.0565 3.1354 -4.0569 4.6523 15.4751 20.5398 -0.1692 0.0616 -9.9007 0.0000 0.0000 -0.0000
18.7796 38.7744 83.4201 179.3820 -29.9058 174.1100 0.0000 0.0000 0.0000 -9.6795 2.5438 -12.2171 -8.3797 -8.8290 37.3977 3.8548 -0.4681 2.7793 0.0000 -0.0000 -0.0000 0.0000 0.0000 0.0000 -1.8931 -3.7034 10.6863 7.8250 -5.2054 -2.9965 -0.0000 0.0000 -0.0000 -3.4426 5.4971 3.4708 -0.0000 0.0000 -0.0000 -32.8549 -2.6232 2.3819 -43.8005 -19.4275 -15.0321 -11.5036 5.2133 44.5483 15.8241 -4.0452 -1.2568 -0.0000 0.0000 -0.0000 33.9516 5.0056 3.4004 37.4044 -3.2476 -19.4997 10.0665 5.2337 17.1071 -9.3967 2.1685 -0.5934 0.0000 0.0000 0.0000 -1.2031 2.4706 -3.4998 3.5911 13.1063 20.0378 1.3885 0.0626 -11.0326 0.0000 0.0000 -0.0000
17.7262 38.7614 83.1912 179.6920 -34.0285 174.0760 0.0000 0.0000 0.0000 -6.5546 5.9272 -14.7748 -9.7962 -10.6219 36.8298 3.2407 -0.3419 0.8815 0.0000 -0.0000 -0.0000 0.0000 0.0000 0.0000 -3.3037 -4.2562 10.5061 9.3861 -6.1236 -2.7485 -0.0000 0.0000 -0.0000 -3.0072 4.3911 3.4438 -0.0000 0.0000 -0.0000 -33.2581 -2.6392 2.4131 -42.9897 -21.1765 -15.3869 -11.1910 5.1990 45.2309 17.5284 -3.2328 -1.2810 -0.0000 0.0000 -0.0000 33.8785 4.9864 3.3865 38.4357 -3.3906 -19.0553 10.1163 5.8423 17.8409 -9.5495 2.2298 -0.6080 0.0000 0.0000 0.0000 -2.4621 1.8836 -2.4202 2.3640 10.3033 19.3975 3.5463 0.0903 -11.9314 0.0000 0.0000 -0.0000
16.6829 38.7371 82.9351 179.9790 -38.4770 173.7040 0.0000 0.0000 0.0000 -3.9671 9.3628 -16.6497 -10.3619 -12.1436 34.7602 3.8440 -0.3710 -0.3672 0.0000 -0.0000 -0.0000 0.0000 0.0000 0.0000 -4.4497 -4.9059 10.5712 10.3408 -7.0970 -2.1769 -0.0000 0.0000 -0.0000 -2.3263 3.1519 2.9773 -0.0000 0.0000 -0.0000 -33.3792 -2.6802 2.4366 -42.4648 -23.1681 -15.8562 -10.7925 5.1865 45.8710 18.1612 -2.6749 -1.2453 -0.0000 0.0000 -0.0000 33.9974 4.9941 3.3998 39.4271 -3.2349 -19.2492 10.0012 6.0278 17.8248 -9.8131 2.3205 -0.6323 0.0000 0.0000 0.0000 -3.3421 1.6735 -0.7707 0.7465 6.9731 18.8448 5.0748 0.1548 -13.0748 0.0000 0.0000 -0.0000
15.6073 38.7166 82.6686 -179.7660 -42.9425 173.3140 0.0000 0.0000 0.0000 -1.9101 11.8665 -18.1972 -10.0778 -13.3215 31.4134 4.4277 -0.4084 -0.7917 0.0000 -0.0000 -0.0000 0.0000 0.0000 0.0000 -5.0655 -5.4973 10.6581 10.6034 -7.8866 -1.5976 -0.0000 0.0000 -0.0000 -1.4823 1.5091 2.6718 -0.0000 0.0000 -0.0000 -33.1826 -2.7700 2.4595 -42.5410 -25.0651 -16.1749 -10.3888 5.1702 46.6396 18.0664 -2.6559 -1.2353 -0.0000 0.0000 -0.0000 34.0785 4.9970 3.4079 40.4076 -3.1583 -19.6997 9.8738 6.0703 17.0135 -9.9713 2.1733 -0.6314 0.0000 0.0000 0.0000 -3.8434 1.8173 1.2708 -1.2818 3.2228 18.1125 5.9530 0.2293 -14.1206 0.0000 0.0000 -0.0000
14.4881 38.7371 82.4134 -179.4320 -47.1335 173.0580 0.0000 0.0000 0.0000 -0.0322 12.3573 -19.6652 -8.4178 -13.0973 26.8092 4.9070 -0.4405 -1.1913 0.0000 -0.0000 -0.0000 0.0000 0.0000 0.0000 -5.1125 -5.9773 10.5322 10.4885 -8.4428 -1.0869 -0.0000 0.0000 -0.0000 -0.8212 -0.3150 2.7855 -0.0000 0.0000 -0.0000 -33.0182 -2.8399 2.4765 -43.1293 -26.4802 -15.8965 -10.2766 5.1559 47.1955 17.8264 -2.9607 -1.2634 -0.0000 0.0000 -0.0000 33.9955 4.9823 3.3949 41.1369 -3.2443 -19.7333 9.8794 6.2196 16.1521 -9.8415 1.9685 -0.6071 0.0000 0.0000 0.0000 -4.1515 2.0473 3.5934 -3.2699 -0.6606 16.7512 7.5553 0.2915 -14.4499 0.0000 0.0000 -0.0000
13.3418 38.7632 82.1738 -178.8600 -50.9138 172.7810 0.0000 0.0000 0.0000 2.0771 10.6758 -20.8442 -5.5192 -10.7016 20.8888 6.3797 -0.5327 -1.9210 0.0000 -0.0000 -0.0000 0.0000 0.0000 0.0000 -4.7237 -6.3279 10.3102 10.3539 -8.8042 -0.7187 -0.0000 0.0000 -0.0000 -0.4426 -2.0317 3.2300 -0.0000 0.0000 -0.0000 -33.0860 -2.8440 2.4824 -44.1239 -27.2282 -14.8877 -10.5757 5.1497 47.2869 17.8885 -3.1213 -1.2917 -0.0000 0.0000 -0.0000 33.8824 4.9727 3.3814 41.2165 -3.3285 -19.2691 10.0249 6.2810 16.2339 -9.4469 1.9885 -0.5833 0.0000 0.0000 0.0000 -4.4025 2.1275 5.9710 -4.5347 -4.0247 15.1181 9.8668 0.3595 -14.4871 0.0000 0.0000 -0.0000
12.1764 38.7411 81.9283 -178.3020 -54.1819 172.5510 0.0000 0.0000 0.0000 4.2994 7.9453 -21.4229 -2.6833 -6.8141 14.1159 8.9261 -0.6648 -2.9636 0.0000 -0.0000 -0.0000 0.0000 0.0000 0.0000 -4.3366 -6.4656 10.1264 10.4065 -8.9531 -0.5097 -0.0000 0.0000 -0.0000 -0.2550 -3.7542 3.7502 -0.0000 0.0000 -0.0000 -33.2753 -2.8473 2.4958 -45.4467 -27.2786 -13.3749 -11.1604 5.1476 47.1047 18.0508 -3.1170 -1.3032 -0.0000 0.0000 -0.0000 33.8625 4.9816 3.3832 40.5747 -3.2801 -18.8640 10.1672 5.9010 17.5301 -9.1636 2.1892 -0.5797 0.0000 0.0000 0.0000 -4.7197 2.0247 8.3472 -5.0596 -6.5840 13.5694 11.3364 0.4333 -14.8073 0.0000 0.0000 -0.0000
11.0066 38.7020 81.6507 -178.1840 -56.9793 172.7180 0.0000 0.0000 0.0000 5.9392 5.8867 -21.4926 -0.9369 -3.6963 7.1226 11.2022 -0.7027 -4.3573 0.0000 -0.0000 -0.0000 0.0000 0.0000 0.0000 -4.4007 -6.4410 9.7798 10.6227 -8.9753 -0.1808 -0.0000 0.0000 -0.0000 -0.2207 -5.6518 4.1438 -0.0000 0.0000 -0.0000 -33.3661 -2.9066 2.5249 -46.8215 -26.7137 -11.5161 -11.9803 5.1439 46.8854 17.5382 -3.3679 -1.3009 -0.0000 0.0000 -0.0000 33.9731 5.0081 3.4033 39.5519 -3.1181 -18.8673 10.1854 5.1784 19.0328 -9.4865 2.2285 -0.6036 0.0000 0.0000 0.0000 -5.1727 1.8412 10.9858 -5.2540 -8.8412 11.5552 11.8681 0.4585 -14.8914 0.0000 0.0000 -0.0000
9.8289 38.6483 81.3320 -178.3510 -59.4898 173.2400 0.0000 0.0000 0.0000 6.3036 5.9805 -21.5839 0.0003 -4.1498 0.7782 12.0902 -0.6130 -5.7701 0.0000 -0.0000 -0.0000 0.0000 0.0000 0.0000 -4.7983 -6.4704 9.0657 10.8841 -9.0741 0.4746 -0.0000 0.0000 -0.0000 -0.0227 -6.7278 4.7266 -0.0000 0.0000 -0.0000 -33.3574 -2.9725 2.5502 -47.8415 -25.7416 -9.3506 -13.0581 5.1395 46.5327 15.8760 -4.0719 -1.2645 -0.0000 0.0000 -0.0000 34.1707 5.0441 3.4348 38.5165 -2.9255 -19.1007 10.1076 4.6055 19.4854 -10.4491 1.9964 -0.6480 0.0000 0.0000 0.0000 -5.6709 1.6611 13.7481 -5.1817 -10.8270 9.1710 13.0777 0.4648 -14.6240 0.0000 0.0000 -0.0000
8.5816 38.4734 80.9896 -178.2870 -61.7290 173.6120 0.0000 0.0000 0.0000 6.5459 6.3713 -22.0269 0.3466 -6.5750 -3.1680 12.0935 -0.4747 -7.1092 0.0000 -0.0000 -0.0000 0.0000 0.0000 0.0000 -5.0525 -6.6038 8.2698 11.2211 -9.2888 1.1671 -0.0000 0.0000 -0.0000 -0.2725 -7.4871 5.3065 -0.0000 0.0000 -0.0000 -33.4842 -2.9938 2.5669 -48.3537 -24.6377 -6.7741 -14.2294 5.0549 45.3401 13.5090 -4.9329 -1.1636 -0.0000 0.0000 -0.0000 34.2634 5.0591 3.4488 37.5930 -2.6905 -19.4422 10.0260 4.3531 18.9586 -11.5491 1.8644 -0.7066 0.0000 0.0000 0.0000 -6.0371 1.6177 15.9880 -5.0121 -11.8434 8.0424 15.1378 0.5914 -15.0911 0.0000 0.0000 -0.0000
7.2132 38.1500 80.6457 -178.0670 -63.6310 173.7020 0.0000 0.0000 0.0000 6.7398 6.6166 -22.5614 0.1421 -10.0407 -3.3606 11.6034 -0.2860 -8.8743 0.0000 -0.0000 -0.0000 0.0000 0.0000 0.0000 -5.1583 -6.7118 7.8142 11.8094 -9.5290 1.5795 -0.0000 0.0000 -0.0000 -0.9593 -8.2668 5.6767 -0.0000 0.0000 -0.0000 -33.8465 -3.0175 2.6001 -48.5721 -23.7202 -3.5878 -15.1850 4.7225 42.5585 11.3957 -5.5403 -1.0290 -0.0000 0.0000 -0.0000 34.0733 5.0217 3.4174 36.7777 -2.3278 -19.8696 9.9176 4.1908 18.3301 -12.2298 2.0916 -0.7714 0.0000 0.0000 0.0000 -6.1414 2.0450 17.6457 -5.3001 -12.4307 8.9349 16.4181 0.8018 -16.2184 0.0000 0.0000 -0.0000
5.6957 37.8134 80.2889 -178.0390 -65.4783 173.8580 0.0000 0.0000 0.0000 6.7502 6.5151 -22.5522 -0.8335 -14.0257 -0.8327 9.3921 -0.1041 -10.5900 0.0000 -0.0000 -0.0000 0.0000 0.0000 0.0000 -5.3041 -6.9345 7.2593 12.4796 -9.9260 2.0697 -0.0000 0.0000 -0.0000 -1.6030 -9.0639 5.8443 -0.0000 0.0000 -0.0000 -34.2883 -3.0934 2.6598 -48.6786 -23.2859 -1.3546 -15.7025 4.4256 40.0065 10.2826 -5.7885 -0.9430 -0.0000 0.0000 -0.0000 33.7573 4.9548 3.3636 36.0569 -2.0132 -20.3998 9.7427 4.1114 18.0274 -12.3457 2.3724 -0.8068 0.0000 0.0000 0.0000 -5.9270 3.1403 19.3618 -6.1054 -14.1324 10.6159 17.0087 0.8322 -16.2537 0.0000 0.0000 -0.0000
4.0267 37.6374 79.9133 -177.6080 -67.5194 173.8570 0.0000 0.0000 0.0000 6.7720 6.1061 -21.9245 -2.3172 -18.2615 1.8937 4.5118 -0.0701 -10.2796 0.0000 -0.0000 -0.0000 0.0000 0.0000 0.0000 -4.9821 -7.5398 5.9240 12.7395 -10.5853 2.7847 -0.0000 0.0000 -0.0000 -2.0854 -9.7155 6.3184 -0.0000 0.0000 -0.0000 -34.6727 -3.1656 2.7148 -48.8265 -23.3265 -1.1004 -15.7594 4.3972 39.4641 10.4804 -5.8137 -0.9644 -0.0000 0.0000 -0.0000 33.6829 4.9243 3.3451 35.3612 -2.2516 -20.9060 9.5731 4.4402 17.5706 -12.1959 2.2967 -0.7894 0.0000 0.0000 0.0000 -5.3162 4.5096 21.3169 -6.7018 -16.7283 11.6979 18.2458 0.5315 -14.1666 0.0000 0.0000 -0.0000
2.2502 37.6197 79.5590 -175.7850 -69.0619 172.8400 0.0000 0.0000 0.0000 7.1140 5.6929 -21.7359 -3.8724 -21.3443 4.8469 -0.7121 0.0060 -7.2590 0.0000 -0.0000 -0.0000 0.0000 0.0000 0.0000 -3.3142 -8.2125 4.1784 12.3269 -11.0796 2.9985 -0.0000 0.0000 -0.0000 -2.7644 -10.0470 7.5998 -0.0000 0.0000 -0.0000 -34.9246 -3.1572 2.7285 -49.3460 -23.3497 -2.7773 -15.3854 4.6470 40.8386 11.8952 -5.7019 -1.0916 -0.0000 0.0000 -0.0000 33.8494 4.9412 3.3660 34.6402 -3.1718 -21.3027 9.4852 5.0125 16.6093 -12.0956 2.0109 -0.7550 0.0000 0.0000 0.0000 -3.9738 6.4883 22.4741 -7.2564 -19.4797 13.5973 18.2591 -0.0536 -10.6702 0.0000 0.0000 -0.0000
